<?xml version="1.0" encoding="UTF-8"?>
<svg width="256px" height="256px" viewBox="0 0 256 256" version="1.1" xmlns="http://www.w3.org/2000/svg" xmlns:xlink="http://www.w3.org/1999/xlink" style="background: #FFFFFF;">
    <title>icon</title>
    <defs>
        <linearGradient x1="50%" y1="0%" x2="50%" y2="100%" id="linearGradient-1">
            <stop stop-color="#6236FF" offset="0%"></stop>
            <stop stop-color="#3000DA" offset="100%"></stop>
        </linearGradient>
    </defs>
    <g id="Page-1" stroke="none" stroke-width="1" fill="none" fill-rule="evenodd">
        <g id="icon" transform="translate(29.000000, 29.000000)">
            <circle id="Oval" fill="url(#linearGradient-1)" fill-rule="nonzero" cx="99" cy="99" r="99"></circle>
            <path d="M49,143 C49,143 69.8184196,160 99.5001855,160 C129.181951,160 150,143 150,143" id="Path" stroke="#FFFFFF" stroke-width="4"></path>
            <path d="M43,115 C43,115 79.2179901,158 99.5,158 C119.78201,158 156,115 156,115" id="Path" stroke="#FFFFFF" stroke-width="4"></path>
            <path d="M43,80 C43,80 79.2179901,158 99.5,158 C119.78201,158 156,80 156,80" id="Path" stroke="#FFFFFF" stroke-width="4"></path>
            <path d="M67,50 C67,50 89.5469429,159 100.000307,159 C110.453672,159 133,50 133,50" id="Path" stroke="#FFFFFF" stroke-width="4"></path>
            <line x1="100.5" y1="159" x2="100.5" y2="40" id="Path" stroke="#FFFFFF" stroke-width="4"></line>
        </g>
    </g>
</svg>